# xmcd
#
# Track frame offsets:
#	150
#	12032
#	29907
#	43937
#	58400
#	75232
#	88147
#	101767
#	127345
#	145002
#	163895
#	185430
#	207102
#	225980
#	238207
#
# Disc length: 3409 seconds
#
# Revision: 1
# Processed by: cddbd v1.5.2PL0 Copyright (c) Steve Scherf et al.
# Submitted via: audiograbber 1.83.01
#
DISCID=d40d4f0f
DTITLE=Dick Wardell - Street Life Blues
DYEAR=1996
DGENRE=Blues
TTITLE0=Some Of These Days
TTITLE1=Dream and Change Blues
TTITLE2=It's Too Late
TTITLE3=Birds Are Singing
TTITLE4=Walking The Blues
TTITLE5=Future Blues
TTITLE6=Street Life Blues
TTITLE7=Love Will Make You Cry
TTITLE8=Mean Old 'Frisco
TTITLE9=Midnight Moon
TTITLE10=Lets Turn Out The Light
TTITLE11=Katie Mae
TTITLE12=Poor Children Dyin'
TTITLE13=Play With Your Poodle
TTITLE14=New Day Coming
EXTD=
EXTT0=
EXTT1=
EXTT2=
EXTT3=
EXTT4=
EXTT5=
EXTT6=
EXTT7=
EXTT8=
EXTT9=
EXTT10=
EXTT11=
EXTT12=
EXTT13=
EXTT14=
PLAYORDER=
